<svg xmlns="http://www.w3.org/2000/svg" xmlns:xlink="http://www.w3.org/1999/xlink" width="492.48046875" height="99.0966796875" viewBox="0 0 492.48046875 99.0966796875" fill="none"><path id="logo-light" fill-rule="evenodd" style="fill:#1B1B1B" opacity="1" d="M1.1,79.47h19.11v-67.75h-20.21v-11.72h59.99c8.42,0 15.19,0.29 15.19,0.29c6.78,0.3 12.27,1.32 12.27,1.32c6.45,1.25 10.95,3.44 10.95,3.44c4.51,2.2 7.36,5.31 7.36,5.31c2.86,3.12 4.14,7.04 4.14,7.04c1.28,3.91 1.28,8.53 1.28,8.53c0,8.42 -5.27,14.65 -5.27,14.65c-5.28,6.22 -15.9,9.52 -15.9,9.52c-1.31,0.44 -2.74,0.77 -2.74,0.77c-1.43,0.33 -2.89,0.69 -2.89,0.69c3.88,2.05 7.76,5.2 7.76,5.2c3.88,3.15 7.18,6.89 7.18,6.89c3.29,3.73 5.75,7.8 5.75,7.8c2.45,4.06 3.47,8.02 3.47,8.02h14.8v11.72h-51.71v-11.72h17.43c-1.24,-3.96 -3.88,-8.13 -3.88,-8.13c-2.64,-4.18 -6.37,-7.84 -6.37,-7.84c-3.74,-3.66 -8.46,-6.37 -8.46,-6.37c-4.72,-2.71 -10.07,-3.66 -10.07,-3.66h-23.59v26h17.88v11.72h-53.47zM95.58,52.88c4.91,-1.46 8.79,-4.1 8.79,-4.1c3.88,-2.64 6.56,-6.15 6.56,-6.15c2.67,-3.52 4.1,-7.77 4.1,-7.77c1.43,-4.24 1.43,-8.86 1.43,-8.86c0,-3.22 -0.66,-6.22 -0.66,-6.22c-0.66,-3.01 -2.27,-5.75 -2.27,-5.75c-1.62,-2.75 -4.33,-5.31 -4.33,-5.31c-2.71,-2.57 -6.73,-4.98 -6.73,-4.98c4.54,1.68 7.8,4.06 7.8,4.06c3.26,2.38 5.34,5.31 5.34,5.31c2.09,2.93 3.08,6.19 3.08,6.19c0.99,3.26 0.99,6.7 0.99,6.7c0,4.25 -1.14,8.28 -1.14,8.28c-1.13,4.03 -3.44,7.65 -3.44,7.65c-2.31,3.63 -5.9,6.63 -5.9,6.63c-3.58,3 -8.42,5.13 -8.42,5.13c2.2,1.75 4.36,4.35 4.36,4.35c2.16,2.6 4.06,5.57 4.06,5.57c1.91,2.97 3.45,5.93 3.45,5.93c1.53,2.97 2.41,5.46 2.41,5.46h-3.44c-1.1,-2.86 -2.75,-6.04 -2.75,-6.04c-1.64,-3.19 -3.73,-6.19 -3.73,-6.19c-2.09,-3 -4.51,-5.6 -4.51,-5.6c-2.41,-2.6 -5.05,-4.29 -5.05,-4.29zM77.71,40.76c5.79,-0.99 9.27,-2.93 9.27,-2.93c3.47,-1.94 4.9,-4.8 4.9,-4.8c1.43,-2.85 1.43,-6.52 1.43,-6.52c0,-4.54 -3.22,-8.16 -3.22,-8.16c-3.22,-3.63 -10.26,-5.39 -10.26,-5.39c-3.29,-0.8 -7.47,-1.02 -7.47,-1.02c-4.17,-0.22 -9.23,-0.22 -9.23,-0.22h-26.44v30.03h26.44c8.79,0 14.58,-0.99 14.58,-0.99zM41.97,16.85h21.16c6.01,0 10.04,0.25 10.04,0.25c4.03,0.26 6.81,0.92 6.81,0.92c2.78,0.66 4.61,1.72 4.61,1.72c1.84,1.06 3.37,2.67 3.37,2.67c-1.46,-0.66 -3.48,-1.17 -3.48,-1.17c-2.01,-0.51 -4.94,-0.88 -4.94,-0.88c-2.93,-0.36 -6.92,-0.55 -6.92,-0.55c-3.99,-0.18 -9.49,-0.18 -9.49,-0.18h-18.23v17.72h-2.93zM3.96,16.85h11.64v2.78h-11.64zM41.97,58.59h8.86c7.03,0 12.49,1.14 12.49,1.14c5.45,1.13 7.94,3.92 7.94,3.92c-2.05,-0.59 -4.06,-1.03 -4.06,-1.03c-2.01,-0.44 -4.54,-0.69 -4.54,-0.69c-2.53,-0.26 -5.86,-0.41 -5.86,-0.41c-3.33,-0.14 -8.02,-0.14 -8.02,-0.14h-3.88v13.69h-2.93zM128.61,96.31v-12.74h2.93v15.53h-56.76v-2.79zM59.99,96.31v-12.74h2.93v15.53h-57.13v-2.79zM155.71,11.72h-17.21v-11.72h55.67v11.72h-20.44l25.56,63.5l30.1,-63.5h-17.79v-11.72h52.88v11.72h-18.39l27.91,63.13l25.27,-63.13h-18.68v-11.72h49.66v11.72h-15.75l-32.52,79.47h-17.06l-28.42,-62.26l-30.47,62.26h-17.07zM285.28,96.31l32.88,-79.46h17.36v-13.11h2.93v15.89h-18.16l-32.74,79.47h-15.6l-1.54,-2.79zM269.75,16.85l0.66,-13.11h2.27v15.89h-13.62l16.92,38.96l-1.76,3.74l-19.63,-45.48zM181.35,16.85h18.09v-13.11h2.93v15.89h-16.63l16.26,40.43l-1.76,3.73zM285.35,16.85h8.2l-1.09,2.78h-7.11zM215.63,16.85h6.88l-1.25,2.78h-5.63zM143.26,16.85h10.04l1.17,2.78h-11.21zM209.47,96.31l27.61,-56.03l1.69,3.52l-27.17,55.3h-15.6l-1.54,-2.79zM338.01,79.47h15.82l48.2,-79.47h15.82l47.31,79.47h19.04v11.72h-56.39v-11.72h17.72l-10.62,-18.68h-51.34l-10.33,18.68h16.92v11.72h-52.15zM429.49,3.74l42.41,71.33h-3.37l-42.41,-71.33zM408.91,15.23l-20.21,36.41h40.94zM410.23,23.58l1.76,3.23l-11.79,20.43h-3.59zM386.43,65.92h47.82l1.32,2.78h-46.95l-3.44,6.37h-3.73zM489.4,96.31v-12.81h3.08v15.6h-61.52v-2.79zM395.43,96.31v-12.81h2.93v15.6h-57.12v-2.79z"></path></svg>